# xmcd
#
# Track frame offsets:
#	150
#	13463
#	23483
#	32483
#	45886
#	56776
#	67869
#	79779
#	92349
#	102024
#
# Disc length: 1553 seconds
#
# Revision: 1
# Processed by: cddbd v1.5.2PL0 Copyright (c) Steve Scherf et al.
# Submitted via: audiograbber 1.83.01
#
DISCID=67060f0a
DTITLE=Loretta Lynn - Crisco presents Country Classics
DYEAR=1979
DGENRE=Country
TTITLE0=Coal Miner's Daughter
TTITLE1=I Wanna Be Free
TTITLE2=We've Come A Long Way, Baby
TTITLE3=Somebody Somewhere
TTITLE4=God Bless The Children
TTITLE5=Love Is The Foundation
TTITLE6=Spring Fever
TTITLE7=Hea Loretta
TTITLE8=Home
TTITLE9=I Can't Feel You Anymore
EXTD=
EXTT0=
EXTT1=
EXTT2=
EXTT3=
EXTT4=
EXTT5=
EXTT6=
EXTT7=
EXTT8=
EXTT9=
PLAYORDER=
